<svg width="29" height="29" viewBox="0 0 29 29" fill="none" xmlns="http://www.w3.org/2000/svg">
<path d="M14.5 0C6.49263 0 0 6.66094 0 14.869C0 21.4393 4.1558 27.0062 9.91696 28.9741C9.99777 28.9916 10.0803 29.0003 10.1629 29C10.7002 29 10.9074 28.6051 10.9074 28.262C10.9074 27.906 10.8944 26.9739 10.8879 25.731C10.4083 25.8435 9.91763 25.9021 9.425 25.9058C6.63505 25.9058 6.00067 23.7373 6.00067 23.7373C5.3404 22.0219 4.38884 21.5623 4.38884 21.5623C3.12656 20.6754 4.38237 20.6495 4.47946 20.6495H4.48594C5.94241 20.779 6.70625 22.1902 6.70625 22.1902C7.43125 23.4589 8.40223 23.8149 9.26964 23.8149C9.84319 23.8035 10.4079 23.6711 10.9268 23.4266C11.0562 22.4685 11.4317 21.8147 11.846 21.4393C8.62879 21.0638 5.2433 19.7886 5.2433 14.0922C5.2433 12.4674 5.80647 11.1404 6.73214 10.1047C6.58326 9.72924 6.08482 8.21451 6.87455 6.16897C6.98048 6.14362 7.08936 6.13274 7.19821 6.13661C7.72254 6.13661 8.90714 6.33727 10.8621 7.69665C13.2374 7.03205 15.7496 7.03205 18.125 7.69665C20.0799 6.33727 21.2645 6.13661 21.7888 6.13661C21.8977 6.13274 22.0066 6.14362 22.1125 6.16897C22.9022 8.21451 22.4038 9.72924 22.2549 10.1047C23.1806 11.1469 23.7437 12.4739 23.7437 14.0922C23.7437 19.8016 20.3518 21.0574 17.1217 21.4263C17.6395 21.8859 18.1056 22.7922 18.1056 24.1774C18.1056 26.1647 18.0862 27.7701 18.0862 28.2556C18.0862 28.6051 18.2868 29 18.8241 29C18.9111 29.0004 18.9979 28.9917 19.083 28.9741C24.8507 27.0062 29 21.4328 29 14.869C29 6.66094 22.5074 0 14.5 0Z" fill="#42B0FF"/>
</svg>
