<svg viewBox="15 0 33 46" fill="none" xmlns="http://www.w3.org/2000/svg">
  <g id="logo">
    <path id="logo-2"
      d="M16.564 38L7.84528 15.2188H7.70465C7.86871 17.0234 7.95074 19.168 7.95074 21.6523V38H5.19098V12.3008H9.69098L17.8297 33.5H17.9703L26.1793 12.3008H30.6441V38H27.6558V21.4414C27.6558 19.543 27.7379 17.4805 27.9019 15.2539H27.7613L18.9722 38H16.564Z"
      fill="#DBA052" />
    <path id="logo-1"
      d="M14.9062 38L6.1875 15.2188H6.04688C6.21094 17.0234 6.29297 19.168 6.29297 21.6523V38H3.5332V12.3008H8.0332L16.1719 33.5H16.3125L24.5215 12.3008H28.9863V38H25.998V21.4414C25.998 19.543 26.0801 17.4805 26.2441 15.2539H26.1035L17.3145 38H14.9062Z"
      fill="#42B0FF" />
  </g>
</svg>
