<svg viewBox="0 0 35 30" fill="none" xmlns="http://www.w3.org/2000/svg">
  <path id="unmute"
    d="M30.8537 25.0979C32.6102 22.0322 33.7391 19.3272 33.7391 14.9991C33.7391 10.671 32.6571 7.99305 30.8537 4.90029M9.00154 9.22835H2.72134C2.53003 9.22835 2.34655 9.30435 2.21128 9.43963C2.076 9.57491 2 9.75838 2 9.94969V20.0485C2 20.2398 2.076 20.4233 2.21128 20.5586C2.34655 20.6938 2.53003 20.7698 2.72134 20.7698H9.00154C9.33497 20.77 9.65805 20.8857 9.91584 21.0972L18.1635 27.8597C18.2711 27.9389 18.3984 27.9866 18.5315 27.9975C18.6646 28.0085 18.798 27.9824 18.9171 27.922C19.0362 27.8616 19.1362 27.7694 19.2059 27.6556C19.2757 27.5417 19.3125 27.4108 19.3122 27.2773V2.72093C19.3122 2.58758 19.2751 2.45685 19.2052 2.34328C19.1353 2.22971 19.0353 2.13774 18.9163 2.07758C18.7973 2.01742 18.6639 1.99142 18.531 2.00249C18.3982 2.01355 18.2709 2.06124 18.1635 2.14025L9.91584 8.90284C9.65781 9.11368 9.33475 9.22869 9.00154 9.22835V9.22835ZM26.5257 20.7698C27.4039 19.0197 27.9684 17.0901 27.9684 14.9991C27.9684 12.8792 27.4274 10.9956 26.5257 9.22835V20.7698Z"
    stroke="black" stroke-width="2.50278" stroke-linecap="round" stroke-linejoin="round" />
</svg>
